<mxfile host="app.diagrams.net" modified="2023-04-06T19:16:37.044Z" agent="Mozilla/5.0 (Windows NT 10.0; Win64; x64) AppleWebKit/537.36 (KHTML, like Gecko) Chrome/112.0.0.0 Safari/537.36" etag="IhFW3QLOxJozcVHzdWF6" version="21.1.4" type="github">
  <diagram name="Page-1" id="98W21jzWlToPrQMoX2X3">
    <mxGraphModel dx="1014" dy="659" grid="1" gridSize="10" guides="1" tooltips="1" connect="1" arrows="1" fold="1" page="1" pageScale="1" pageWidth="1800" pageHeight="1000" math="0" shadow="0">
      <root>
        <mxCell id="0" />
        <mxCell id="1" parent="0" />
        <mxCell id="7vytak-waEp4CcaB7Lcg-1" value="" style="sketch=0;outlineConnect=0;fontColor=#232F3E;gradientColor=none;fillColor=#2E27AD;strokeColor=none;dashed=0;verticalLabelPosition=bottom;verticalAlign=top;align=center;html=1;fontSize=12;fontStyle=0;aspect=fixed;pointerEvents=1;shape=mxgraph.aws4.rds_mysql_instance;" vertex="1" parent="1">
          <mxGeometry x="211.5" y="180" width="78" height="78" as="geometry" />
        </mxCell>
        <mxCell id="7vytak-waEp4CcaB7Lcg-5" style="edgeStyle=orthogonalEdgeStyle;rounded=0;orthogonalLoop=1;jettySize=auto;html=1;" edge="1" parent="1" source="7vytak-waEp4CcaB7Lcg-2" target="7vytak-waEp4CcaB7Lcg-1">
          <mxGeometry relative="1" as="geometry" />
        </mxCell>
        <mxCell id="7vytak-waEp4CcaB7Lcg-8" style="edgeStyle=orthogonalEdgeStyle;rounded=0;orthogonalLoop=1;jettySize=auto;html=1;exitX=0;exitY=0.5;exitDx=0;exitDy=0;entryX=0;entryY=0.5;entryDx=0;entryDy=0;" edge="1" parent="1" source="7vytak-waEp4CcaB7Lcg-2" target="7vytak-waEp4CcaB7Lcg-4">
          <mxGeometry relative="1" as="geometry">
            <mxPoint x="120" y="500" as="targetPoint" />
            <Array as="points">
              <mxPoint x="140" y="385" />
              <mxPoint x="140" y="540" />
              <mxPoint x="190" y="540" />
            </Array>
          </mxGeometry>
        </mxCell>
        <mxCell id="7vytak-waEp4CcaB7Lcg-17" style="edgeStyle=orthogonalEdgeStyle;rounded=0;orthogonalLoop=1;jettySize=auto;html=1;" edge="1" parent="1" source="7vytak-waEp4CcaB7Lcg-2" target="7vytak-waEp4CcaB7Lcg-3">
          <mxGeometry relative="1" as="geometry">
            <Array as="points">
              <mxPoint x="420" y="390" />
              <mxPoint x="420" y="390" />
            </Array>
          </mxGeometry>
        </mxCell>
        <mxCell id="7vytak-waEp4CcaB7Lcg-2" value="&lt;b&gt;Controller&lt;/b&gt;" style="rounded=0;whiteSpace=wrap;html=1;fillColor=#3399FF;strokeColor=#000000;strokeWidth=1;" vertex="1" parent="1">
          <mxGeometry x="190" y="370" width="121" height="30" as="geometry" />
        </mxCell>
        <mxCell id="7vytak-waEp4CcaB7Lcg-22" style="edgeStyle=orthogonalEdgeStyle;rounded=0;orthogonalLoop=1;jettySize=auto;html=1;" edge="1" parent="1" source="7vytak-waEp4CcaB7Lcg-3">
          <mxGeometry relative="1" as="geometry">
            <mxPoint x="310" y="380" as="targetPoint" />
            <Array as="points">
              <mxPoint x="460" y="380" />
            </Array>
          </mxGeometry>
        </mxCell>
        <mxCell id="7vytak-waEp4CcaB7Lcg-3" value="&lt;b&gt;View&lt;/b&gt;" style="rounded=0;whiteSpace=wrap;html=1;fillColor=#3399FF;strokeColor=#000000;strokeWidth=1;" vertex="1" parent="1">
          <mxGeometry x="530" y="370" width="121" height="30" as="geometry" />
        </mxCell>
        <mxCell id="7vytak-waEp4CcaB7Lcg-7" style="edgeStyle=orthogonalEdgeStyle;rounded=0;orthogonalLoop=1;jettySize=auto;html=1;exitX=0.5;exitY=0;exitDx=0;exitDy=0;entryX=0.5;entryY=1;entryDx=0;entryDy=0;" edge="1" parent="1" source="7vytak-waEp4CcaB7Lcg-4" target="7vytak-waEp4CcaB7Lcg-2">
          <mxGeometry relative="1" as="geometry" />
        </mxCell>
        <mxCell id="7vytak-waEp4CcaB7Lcg-4" value="&lt;b&gt;Customer&lt;/b&gt;" style="rounded=0;whiteSpace=wrap;html=1;fillColor=#FF8000;strokeColor=#000000;strokeWidth=1;" vertex="1" parent="1">
          <mxGeometry x="190" y="530" width="121" height="30" as="geometry" />
        </mxCell>
        <mxCell id="7vytak-waEp4CcaB7Lcg-6" value="&lt;b&gt;Update Weekly&lt;br&gt;&amp;nbsp;Rewards Table &amp;amp; Add Entry &lt;br&gt;to Transaction Table&lt;/b&gt;" style="text;html=1;align=center;verticalAlign=middle;resizable=0;points=[];autosize=1;strokeColor=none;fillColor=none;" vertex="1" parent="1">
          <mxGeometry x="241.5" y="280" width="180" height="60" as="geometry" />
        </mxCell>
        <mxCell id="7vytak-waEp4CcaB7Lcg-10" value="&lt;b&gt;Balance over $5000 with no &lt;br&gt;overdraft.&amp;nbsp;&lt;/b&gt;" style="text;html=1;align=center;verticalAlign=middle;resizable=0;points=[];autosize=1;strokeColor=none;fillColor=none;" vertex="1" parent="1">
          <mxGeometry x="256.5" y="450" width="180" height="40" as="geometry" />
        </mxCell>
        <mxCell id="7vytak-waEp4CcaB7Lcg-14" value="&lt;b&gt;Customer Plays Game&lt;/b&gt;" style="text;html=1;align=center;verticalAlign=middle;resizable=0;points=[];autosize=1;strokeColor=none;fillColor=none;" vertex="1" parent="1">
          <mxGeometry x="350" y="394" width="150" height="30" as="geometry" />
        </mxCell>
        <mxCell id="7vytak-waEp4CcaB7Lcg-20" style="edgeStyle=orthogonalEdgeStyle;rounded=0;orthogonalLoop=1;jettySize=auto;html=1;entryX=0.5;entryY=0;entryDx=0;entryDy=0;" edge="1" parent="1" source="7vytak-waEp4CcaB7Lcg-18" target="7vytak-waEp4CcaB7Lcg-3">
          <mxGeometry relative="1" as="geometry" />
        </mxCell>
        <mxCell id="7vytak-waEp4CcaB7Lcg-18" value="&lt;b&gt;Model&lt;/b&gt;" style="rounded=0;whiteSpace=wrap;html=1;fillColor=#3399FF;strokeColor=#000000;strokeWidth=1;" vertex="1" parent="1">
          <mxGeometry x="530" y="258" width="121" height="30" as="geometry" />
        </mxCell>
        <mxCell id="7vytak-waEp4CcaB7Lcg-21" value="&lt;b&gt;Customer Possible &lt;br&gt;Rewards Uploaded&lt;/b&gt;" style="text;html=1;align=center;verticalAlign=middle;resizable=0;points=[];autosize=1;strokeColor=none;fillColor=none;" vertex="1" parent="1">
          <mxGeometry x="600" y="307" width="130" height="40" as="geometry" />
        </mxCell>
        <mxCell id="7vytak-waEp4CcaB7Lcg-23" value="&lt;b&gt;Customer Reward Selected&lt;/b&gt;" style="text;html=1;align=center;verticalAlign=middle;resizable=0;points=[];autosize=1;strokeColor=none;fillColor=none;" vertex="1" parent="1">
          <mxGeometry x="340" y="350" width="180" height="30" as="geometry" />
        </mxCell>
      </root>
    </mxGraphModel>
  </diagram>
</mxfile>
